<svg xmlns="http://www.w3.org/2000/svg" viewBox="0 0 136.74 49.19">
  <defs>
    <style>
      .cls-1{fill:#004077}.cls-2{fill:#95c11f}.cls-3{fill:#53821d}
    </style>
  </defs>
  <path d="M.07 4.86c.31.2.67.31 1.17.31.65 0 1.19-.33 1.19-1.08C2.43 3.05 0 2.92 0 1.53 0 .68.74.15 1.68.15c.26 0 .68.04 1.04.18l-.08.48c-.24-.13-.61-.2-.96-.2-.55 0-1.14.23-1.14.91 0 1.06 2.43 1.07 2.43 2.62 0 1.07-.92 1.49-1.74 1.49-.52 0-.92-.11-1.2-.23l.05-.54Zm6.06-1.53c0-.67-.27-1.34-.99-1.34S4 2.7 4 3.33h2.12Zm.24 2.08c-.33.14-.77.21-1.12.21-1.28 0-1.76-.86-1.76-2.03s.65-2.02 1.63-2.02c1.09 0 1.54.88 1.54 1.92v.24H4.01c0 .82.44 1.48 1.27 1.48.35 0 .86-.14 1.08-.29v.48Zm.97.12h.48V1.67h-.48v3.87Zm0-4.89h.48V0h-.48v.64Zm3.11 1.44h-.88v2.5c0 .35.13.64.52.64.18 0 .3-.04.44-.09l.03.39a1.6 1.6 0 0 1-.58.11c-.85 0-.88-.58-.88-1.29V2.08h-.76v-.41h.76V.74l.48-.17v1.1h.88v.41ZM14.56.24h.47v5.29h-.52V.83l-.86.76-.28-.35 1.19-1zm3.61 2.35c.48-.23 1.06-.58 1.06-1.12s-.57-.83-1.06-.83c-.55 0-1.07.27-1.07.83 0 .61.64.91 1.07 1.12m0 .39c-.61.25-1.24.46-1.24 1.2 0 .59.63.95 1.24.95s1.24-.27 1.24-1c0-.67-.75-.9-1.24-1.15m0-2.79c.83 0 1.58.37 1.58 1.24 0 .65-.58 1.08-1.08 1.36.72.26 1.26.56 1.26 1.4 0 1.04-.91 1.41-1.76 1.41s-1.76-.44-1.76-1.41c0-.81.53-1.15 1.22-1.4-.55-.26-1.05-.66-1.05-1.36 0-.89.95-1.24 1.59-1.24m4.12 2.4c.48-.23 1.06-.58 1.06-1.12s-.57-.83-1.06-.83c-.55 0-1.07.27-1.07.83 0 .61.64.91 1.07 1.12m0 .39c-.61.25-1.24.46-1.24 1.2 0 .59.63.95 1.24.95s1.24-.27 1.24-1c0-.67-.75-.9-1.24-1.15m0-2.79c.83 0 1.58.37 1.58 1.24 0 .65-.58 1.08-1.08 1.36.72.26 1.26.56 1.26 1.4 0 1.04-.91 1.41-1.76 1.41s-1.76-.44-1.76-1.41c0-.81.53-1.15 1.22-1.4-.55-.26-1.05-.66-1.05-1.36 0-.89.95-1.24 1.59-1.24m3.02 2.37h.14c.72 0 1.8-.08 1.8-1.06 0-.59-.65-.86-1.21-.86-.42 0-.81.11-1.18.28l-.05-.49c.39-.14.84-.24 1.28-.24.87 0 1.68.37 1.68 1.31 0 .64-.45 1.11-1.1 1.27.7.04 1.1.59 1.1 1.3 0 .96-.85 1.52-1.91 1.52-.45 0-.88-.05-1.31-.21l.06-.5c.43.2.9.26 1.27.26.64 0 1.36-.31 1.36-1.11 0-.91-.88-1-1.45-1h-.48v-.46Z" class="cls-3"/>
  <path d="M73.93 20.19v-7.82c0-3.91-.18-7.87-.36-11.78.77.14 1.5.23 2.23.23s1.46-.09 2.23-.23c-.18 3.91-.36 7.87-.36 11.78v2.5c0 .27.09.36.27.36s.27-.09.64-.41c4.23-3.68 9.41-9.37 13.69-14.24.59.14 1.23.23 1.87.23.73 0 1.46-.09 2.18-.23C92.14 4.26 85.04 11 81.77 14.77c4.87 5.5 9.92 11.37 15.06 17.19a15.1 15.1 0 0 0-5.23 0c-4.32-5.32-11.19-13.69-13.14-15.65-.27-.27-.41-.36-.55-.36s-.23.14-.23.27v3.96c0 3.91.18 7.87.36 11.78-.77-.14-1.5-.23-2.23-.23s-1.46.09-2.23.23c.18-3.91.36-7.87.36-11.78" class="cls-1"/>
  <path d="M109.37 3.62a4.33 4.33 0 0 0-2.31-.63c-2.48 0-3.45 2.02-3.45 4.2 0 1.01.25 3.19.5 4.92 1.43 0 2.9-.04 4.33-.04-.04.29-.08.59-.08.84 0 .29.04.59.08.84-1.43-.04-2.9-.13-4.33-.13 0 6.1 0 12.15.17 18.33-.59-.12-1.22-.21-1.81-.21s-1.22.08-1.85.21c.38-6.18.38-12.19.38-18.33-1.01 0-2.02.08-3.03.13.04-.25.08-.55.08-.84 0-.25-.04-.55-.08-.84 1.01 0 2.06.04 3.03.04 0-3.28 1.43-7.95 3.66-10.17A6.57 6.57 0 0 1 108.95 0c.25 0 .59.04.84.13-.04 1.13-.17 2.27-.17 3.36l-.25.13Z" class="cls-2"/>
  <path d="M134.96 32.57c-6.22-8.14-13.67-16.87-20.68-25.15-.04 1.68-.12 4.41-.12 9.23 0 3.91.16 13.51.37 15.33a4.86 4.86 0 0 0-2.94 0c.33-2.14.86-13.78.86-19.78s-.01-10.15-.13-12.2h.65c6.67 8.05 15.72 19.01 20.72 24.61 0-8.14 0-17.01-.33-24.02.45.14.94.23 1.39.23s.86-.09 1.31-.23c-.25 2.68-.65 11.69-.65 15.24 0 4.64.08 14.69.12 16.74h-.57Z" class="cls-1"/>
  <path d="M31.79 21.06s-.54-11.04-12.7-7.04c4.95 11.5 12.64 7.44 12.64 7.44s-5.12-4.63-10.14-6.59c6.82 2.51 10.2 6.19 10.2 6.19" class="cls-3"/>
  <path d="M47.62.03c-2.61 0-5.08.62-7.27 1.71a15.24 15.24 0 1 1-7.83 20.57A16.26 16.26 0 1 0 47.62.03" class="cls-1"/>
  <path d="M32.45 21.09S30.14 2.52 51.58 5.65c-4.92 20.63-18.92 16.09-18.92 16.09s7.19-9.22 15.01-13.94c-10.64 6.17-15.22 13.3-15.22 13.3" class="cls-2"/>
  <path d="M38.52 49.08v-3.19c0-.68-.25-1.21-1.02-1.21-.65 0-1.29.55-1.29 1.75v2.65h-.59v-3.19c0-.68-.25-1.21-1.02-1.21-.65 0-1.29.55-1.29 1.75v2.65h-.59v-3.67c0-.37 0-.74-.04-1.13h.57v.81h.02c.19-.32.47-.92 1.49-.92.42 0 1.12.18 1.27 1.01h.02c.22-.56.78-1.01 1.53-1.01.97 0 1.51.68 1.51 1.61v3.3h-.59Zm5.26-.16a3.9 3.9 0 0 1-1.39.26c-1.59 0-2.18-1.07-2.18-2.51s.81-2.51 2.02-2.51c1.35 0 1.91 1.09 1.91 2.38v.3h-3.28c0 1.01.54 1.83 1.58 1.83.43 0 1.06-.18 1.34-.36v.6Zm-.29-2.58c0-.84-.34-1.66-1.22-1.66s-1.41.88-1.41 1.66h2.63Zm1.77-4.31h.59v3.06h.02c.25-.53.79-.92 1.49-.92 1.29 0 1.64.86 1.64 2.04v2.87h-.59v-2.86c0-.83-.16-1.54-1.14-1.54-1.05 0-1.42 1-1.42 1.83v2.57h-.59v-7.05Zm5.23 3.32c0-.53 0-.72-.04-1.07h.59v.92h.02c.22-.54.62-1.03 1.23-1.03.14 0 .31.03.41.06v.62a1.44 1.44 0 0 0-.43-.06c-.94 0-1.19 1.05-1.19 1.92v2.37h-.59v-3.72Zm8.5 2.95h-.02c-.26.57-.93.88-1.52.88-1.36 0-1.58-.92-1.58-1.35 0-1.61 1.71-1.68 2.95-1.68h.11v-.25c0-.82-.29-1.23-1.09-1.23-.5 0-.97.11-1.41.4v-.57c.37-.18.99-.33 1.41-.33 1.18 0 1.68.54 1.68 1.79v2.11c0 .39 0 .68.05 1.01h-.58v-.77Zm-.06-1.65h-.17c-1.02 0-2.25.1-2.25 1.16 0 .63.45.87 1 .87 1.39 0 1.42-1.21 1.42-1.73v-.29Zm2-4.62h.59v7.05h-.59v-7.05Zm1.72 6.35c.36.18.79.3 1.25.3.56 0 1.06-.31 1.06-.86 0-1.14-2.3-.96-2.3-2.35 0-.95.77-1.31 1.56-1.31.25 0 .76.06 1.18.22l-.06.52a2.8 2.8 0 0 0-1.06-.23c-.61 0-1.03.19-1.03.8 0 .89 2.36.78 2.36 2.35 0 1.01-.95 1.36-1.67 1.36-.46 0-.92-.06-1.34-.22l.06-.58Zm6.64-2.97c0-.37 0-.74-.04-1.13h.57v.86h.02c.2-.43.55-.97 1.55-.97 1.18 0 1.64.79 1.64 1.84v3.06h-.59v-2.91c0-.9-.32-1.49-1.14-1.49-1.08 0-1.42.95-1.42 1.75v2.65h-.59V45.4Zm8.97 2.54c0 .37 0 .74.04 1.13h-.57v-.86h-.02c-.2.43-.55.97-1.55.97-1.18 0-1.64-.79-1.64-1.84v-3.06h.59v2.91c0 .9.32 1.49 1.14 1.49 1.08 0 1.42-.95 1.42-1.75v-2.65h.59v3.67Zm1.48-2.6c0-.53 0-.72-.04-1.07h.59v.92h.02c.22-.54.62-1.03 1.23-1.03.14 0 .31.03.41.06v.62a1.44 1.44 0 0 0-.43-.06c-.94 0-1.19 1.05-1.19 1.92v2.37h-.59v-3.72Zm5.63 2.89c.38.25.84.39 1.45.39.81 0 1.48-.41 1.48-1.34 0-1.29-3.01-1.45-3.01-3.17 0-1.05.92-1.71 2.08-1.71.32 0 .84.05 1.29.22l-.1.59a2.66 2.66 0 0 0-1.19-.24c-.68 0-1.42.28-1.42 1.13 0 1.32 3.01 1.33 3.01 3.24 0 1.33-1.14 1.85-2.15 1.85-.64 0-1.14-.13-1.49-.28l.07-.67Zm7.94-3.32a2.77 2.77 0 0 0-1.02-.25c-1.16 0-1.8.84-1.8 2 0 1.09.66 2 1.74 2 .38 0 .72-.08 1.08-.22l.06.55c-.4.14-.78.17-1.23.17-1.54 0-2.29-1.17-2.29-2.51 0-1.48.95-2.51 2.37-2.51.57 0 .99.13 1.16.19l-.05.56Zm1.05-2.89h.59v3.06h.02c.25-.53.79-.92 1.49-.92 1.29 0 1.64.86 1.64 2.04v2.87h-.59v-2.86c0-.83-.16-1.54-1.14-1.54-1.05 0-1.42 1-1.42 1.83v2.57h-.59v-7.05Zm8.97 5.92c0 .37 0 .74.04 1.13h-.57v-.86h-.02c-.2.43-.55.97-1.55.97-1.18 0-1.64-.79-1.64-1.84v-3.06h.59v2.91c0 .9.32 1.49 1.14 1.49 1.08 0 1.42-.95 1.42-1.75v-2.65h.59v3.67Zm1.48-5.92h.59v7.05h-.59v-7.05Zm7.88 7.05v-3.19c0-.68-.25-1.21-1.01-1.21-.65 0-1.29.55-1.29 1.75v2.65h-.59v-3.19c0-.68-.25-1.21-1.02-1.21-.65 0-1.29.55-1.29 1.75v2.65h-.59v-3.67c0-.37 0-.74-.04-1.13h.57v.81h.02c.19-.32.47-.92 1.5-.92.42 0 1.12.18 1.27 1.01h.02c.22-.56.78-1.01 1.53-1.01.97 0 1.51.68 1.51 1.61v3.3h-.59Zm5.25-.16a3.9 3.9 0 0 1-1.39.26c-1.59 0-2.18-1.07-2.18-2.51s.81-2.51 2.02-2.51c1.35 0 1.91 1.09 1.91 2.38v.3h-3.28c0 1.01.54 1.83 1.58 1.83.43 0 1.06-.18 1.34-.36v.6Zm-.29-2.58c0-.84-.34-1.66-1.22-1.66s-1.41.88-1.41 1.66h2.63Zm5.58 2.74h-.59v-.76h-.02c-.32.61-.81.87-1.49.87-1.32 0-1.97-1.09-1.97-2.51s.56-2.51 1.97-2.51c.94 0 1.41.69 1.49.92h.02v-3.06h.59v7.05Zm-2.01-.39c1.05 0 1.42-1.13 1.42-2s-.37-2-1.42-2c-1.13 0-1.42 1.07-1.42 2s.29 2 1.42 2Zm4.03-5.69h-.59v-.79h.59V43Zm-.59 1.28h.59v4.79h-.59v-4.79Zm1.64 4.3 2.89-3.79h-2.77v-.51h3.46v.51L127 48.57h2.88v.51h-3.57v-.5Zm5.21-5.58h-.59v-.79h.59V43Zm-.59 1.28h.59v4.79h-.59v-4.79Zm2.08 1.13c0-.37 0-.74-.04-1.13h.57v.86h.02c.2-.43.55-.97 1.55-.97 1.18 0 1.64.79 1.64 1.84v3.06h-.59v-2.91c0-.9-.32-1.49-1.14-1.49-1.08 0-1.42.95-1.42 1.75v2.65H133V45.4Z" class="cls-1"/>
</svg>
